<svg width="900" height="64" viewBox="0 0 900 64" xmlns="http://www.w3.org/2000/svg">
  <defs>
    <linearGradient id="spectrum" gradientUnits="userSpaceOnUse" x1="0" y1="0" x2="900" y2="0">
      <stop offset="0" stop-color="#22d3ee"/>
      <stop offset="0.5" stop-color="#a78bfa"/>
      <stop offset="1" stop-color="#f472b6"/>
    </linearGradient>
  </defs>
  <style>
    rect { fill: url(#spectrum); transform-box: fill-box; transform-origin: 50% 100%; animation: eq ease-in-out infinite alternate; }
    .a { animation-duration: 0.7s; } .b { animation-duration: 1.1s; } .c { animation-duration: 0.9s; }
    .d { animation-duration: 1.3s; } .e { animation-duration: 0.8s; }
    .x { animation-delay: -0.2s; } .y { animation-delay: -0.55s; } .z { animation-delay: -0.9s; }
    @keyframes eq { from { transform: scaleY(0.12); } to { transform: scaleY(1); } }
  </style>
  <g>
    <rect class="a"   x="12"  y="22" width="9" height="36" rx="3"/><rect class="b x" x="32"  y="14" width="9" height="44" rx="3"/>
    <rect class="c y" x="52"  y="28" width="9" height="30" rx="3"/><rect class="d z" x="72"  y="10" width="9" height="48" rx="3"/>
    <rect class="e x" x="92"  y="20" width="9" height="38" rx="3"/><rect class="a y" x="112" y="30" width="9" height="28" rx="3"/>
    <rect class="b z" x="132" y="12" width="9" height="46" rx="3"/><rect class="c x" x="152" y="24" width="9" height="34" rx="3"/>
    <rect class="d y" x="172" y="16" width="9" height="42" rx="3"/><rect class="e z" x="192" y="26" width="9" height="32" rx="3"/>
    <rect class="a x" x="212" y="8"  width="9" height="50" rx="3"/><rect class="b y" x="232" y="22" width="9" height="36" rx="3"/>
    <rect class="c z" x="252" y="14" width="9" height="44" rx="3"/><rect class="d x" x="272" y="28" width="9" height="30" rx="3"/>
    <rect class="e y" x="292" y="18" width="9" height="40" rx="3"/><rect class="a z" x="312" y="26" width="9" height="32" rx="3"/>
    <rect class="b x" x="332" y="10" width="9" height="48" rx="3"/><rect class="c y" x="352" y="22" width="9" height="36" rx="3"/>
    <rect class="d z" x="372" y="30" width="9" height="28" rx="3"/><rect class="e x" x="392" y="14" width="9" height="44" rx="3"/>
    <rect class="a y" x="412" y="24" width="9" height="34" rx="3"/><rect class="b z" x="432" y="8"  width="9" height="50" rx="3"/>
    <rect class="c x" x="452" y="20" width="9" height="38" rx="3"/><rect class="d y" x="472" y="28" width="9" height="30" rx="3"/>
    <rect class="e z" x="492" y="12" width="9" height="46" rx="3"/><rect class="a x" x="512" y="26" width="9" height="32" rx="3"/>
    <rect class="b y" x="532" y="16" width="9" height="42" rx="3"/><rect class="c z" x="552" y="24" width="9" height="34" rx="3"/>
    <rect class="d x" x="572" y="10" width="9" height="48" rx="3"/><rect class="e y" x="592" y="22" width="9" height="36" rx="3"/>
    <rect class="a z" x="612" y="30" width="9" height="28" rx="3"/><rect class="b x" x="632" y="14" width="9" height="44" rx="3"/>
    <rect class="c y" x="652" y="26" width="9" height="32" rx="3"/><rect class="d z" x="672" y="8"  width="9" height="50" rx="3"/>
    <rect class="e x" x="692" y="20" width="9" height="38" rx="3"/><rect class="a y" x="712" y="28" width="9" height="30" rx="3"/>
    <rect class="b z" x="732" y="12" width="9" height="46" rx="3"/><rect class="c x" x="752" y="24" width="9" height="34" rx="3"/>
    <rect class="d y" x="772" y="16" width="9" height="42" rx="3"/><rect class="e z" x="792" y="26" width="9" height="32" rx="3"/>
    <rect class="a x" x="812" y="10" width="9" height="48" rx="3"/><rect class="b y" x="832" y="22" width="9" height="36" rx="3"/>
    <rect class="c z" x="852" y="28" width="9" height="30" rx="3"/><rect class="d x" x="872" y="14" width="9" height="44" rx="3"/>
  </g>
</svg>
